<svg xmlns="http://www.w3.org/2000/svg" xmlns:xlink="http://www.w3.org/1999/xlink" width="500" zoomAndPan="magnify" viewBox="0 0 375 374.999991" height="500" preserveAspectRatio="xMidYMid meet" version="1.0"><defs><g/></defs><rect x="-37.5" width="450" fill="#ffffff" y="-37.499999" height="449.999989" fill-opacity="1"/><rect x="-37.5" width="450" fill="#ffffff" y="-37.499999" height="449.999989" fill-opacity="1"/><g fill="#2d334a" fill-opacity="1"><g transform="translate(82.584167, 296.386705)"><g><path d="M 120.746094 0.941406 C 150.226562 0.941406 177.828125 -10.351562 198.527344 -31.363281 C 198.839844 -31.675781 198.839844 -31.988281 198.527344 -32.617188 C 198.210938 -32.929688 197.585938 -32.929688 197.273438 -32.617188 C 176.886719 -11.917969 149.601562 -0.628906 120.746094 -0.628906 C 74.957031 -0.628906 37.636719 -49.238281 37.636719 -109.140625 C 37.636719 -169.046875 74.957031 -217.65625 120.746094 -217.65625 C 149.601562 -217.65625 176.886719 -206.367188 197.273438 -185.980469 C 197.585938 -185.667969 198.210938 -185.667969 198.527344 -185.980469 C 198.839844 -186.292969 198.839844 -186.921875 198.527344 -187.234375 C 177.828125 -207.933594 150.226562 -219.226562 120.746094 -219.226562 C 91.265625 -219.226562 63.667969 -207.933594 42.652344 -187.234375 C -0.3125 -144.269531 -0.3125 -74.328125 42.652344 -31.363281 C 63.667969 -10.351562 91.265625 0.941406 120.746094 0.941406 Z M 120.746094 0.941406 "/></g></g></g><path stroke-linecap="butt" transform="matrix(0.75, 0, 0, 0.75, 62.847341, -31.399949)" fill="none" stroke-linejoin="miter" d="M 91.776468 147.413484 L 164.651473 147.413484 L 164.651473 438.002044 C 164.651473 438.819753 165.469181 439.226003 165.880639 439.226003 L 199.812933 439.226003 C 200.224392 439.226003 201.141058 438.819753 201.141058 438.002044 L 201.141058 147.413484 L 273.917105 147.413484 C 274.323355 147.413484 274.734813 147.002025 274.734813 146.184317 C 274.734813 145.778067 274.323355 145.366608 273.917105 145.366608 L 91.776468 145.366608 C 91.365009 145.366608 90.958759 145.778067 90.958759 146.184317 C 90.958759 147.002025 91.365009 147.413484 91.776468 147.413484 Z M 91.776468 147.413484 " stroke="#ffffff" stroke-width="16.223307" stroke-opacity="1" stroke-miterlimit="4"/><g fill="#2d334a" fill-opacity="1"><g transform="translate(120.409837, 297.100029)"><g><path d="M 11.304688 -217.914062 L 65.9375 -217.914062 L 65.9375 0 C 65.9375 0.628906 66.566406 0.941406 66.882812 0.941406 L 92.316406 0.941406 C 92.628906 0.941406 93.257812 0.628906 93.257812 0 L 93.257812 -217.914062 L 147.890625 -217.914062 C 148.207031 -217.914062 148.519531 -218.226562 148.519531 -218.855469 C 148.519531 -219.167969 148.207031 -219.484375 147.890625 -219.484375 L 11.304688 -219.484375 C 10.988281 -219.484375 10.675781 -219.167969 10.675781 -218.855469 C 10.675781 -218.226562 10.988281 -217.914062 11.304688 -217.914062 Z M 11.304688 -217.914062 "/></g></g></g></svg>